<svg width="21" height="21" viewBox="0 0 21 21" fill="none" xmlns="http://www.w3.org/2000/svg">
<g clip-path="url(#clip0_1559_21034)">
<path d="M14.4464 2.33862H6.01419C3.6857 2.33862 1.7981 4.22623 1.7981 6.55472V14.9869C1.7981 17.3154 3.6857 19.203 6.01419 19.203H14.4464C16.7749 19.203 18.6625 17.3154 18.6625 14.9869V6.55472C18.6625 4.22623 16.7749 2.33862 14.4464 2.33862Z" stroke="#1A1919" stroke-width="2.13024" stroke-linecap="round" stroke-linejoin="round"/>
<path d="M13.6032 10.24C13.7073 10.9417 13.5874 11.6584 13.2606 12.2881C12.9339 12.9179 12.4169 13.4285 11.7832 13.7475C11.1495 14.0664 10.4314 14.1774 9.73095 14.0647C9.03052 13.952 8.38347 13.6213 7.88182 13.1197C7.38017 12.618 7.04947 11.971 6.93676 11.2705C6.82405 10.5701 6.93507 9.85198 7.25403 9.21828C7.57299 8.58459 8.08364 8.0676 8.71335 7.74085C9.34307 7.41411 10.0598 7.29424 10.7615 7.3983C11.4774 7.50445 12.1401 7.83801 12.6518 8.34971C13.1635 8.86141 13.497 9.52412 13.6032 10.24Z" stroke="#1A1919" stroke-width="2.13024" stroke-linecap="round" stroke-linejoin="round"/>
<path d="M14.8679 6.13232H14.8744" stroke="#1A1919" stroke-width="2.13024" stroke-linecap="round" stroke-linejoin="round"/>
</g>
<defs>
<clipPath id="clip0_1559_21034">
<rect width="20.2373" height="20.2373" fill="white" transform="translate(0.111572 0.651123)"/>
</clipPath>
</defs>
</svg>
