<svg width="20" height="20" viewBox="0 0 20 20" fill="none" xmlns="http://www.w3.org/2000/svg">
<mask id="mask0_1559_21023" style="mask-type:luminance" maskUnits="userSpaceOnUse" x="0" y="0" width="20" height="20">
<path d="M19.4306 0.184082H0.258423V19.3562H19.4306V0.184082Z" fill="white"/>
</mask>
<g mask="url(#mask0_1559_21023)">
<path d="M18.0114 0.184082H1.67386C0.891254 0.184082 0.258423 0.801934 0.258423 1.56583V17.9707C0.258423 18.7346 0.891254 19.3562 1.67386 19.3562H18.0114C18.7939 19.3562 19.4306 18.7346 19.4306 17.9744V1.56583C19.4306 0.801934 18.7939 0.184082 18.0114 0.184082ZM5.9464 16.5216H3.10054V7.36988H5.9464V16.5216ZM4.52347 6.12295C3.6098 6.12295 2.87212 5.38527 2.87212 4.47535C2.87212 3.56542 3.6098 2.82774 4.52347 2.82774C5.4334 2.82774 6.17108 3.56542 6.17108 4.47535C6.17108 5.38153 5.4334 6.12295 4.52347 6.12295ZM16.596 16.5216H13.7538V12.073C13.7538 11.0134 13.7351 9.64657 12.2747 9.64657C10.7957 9.64657 10.5709 10.8036 10.5709 11.9982V16.5216H7.73256V7.36988H10.4585V8.62057H10.496C10.8743 7.90161 11.8029 7.14147 13.1846 7.14147C16.0642 7.14147 16.596 9.03622 16.596 11.5001V16.5216Z" fill="#1A1919"/>
</g>
</svg>
