<svg width="150" height="38" viewBox="0 0 150 38" fill="none" xmlns="http://www.w3.org/2000/svg">
<path d="M37.4698 11.6713V30.9529C37.4698 34.5469 34.5563 37.4604 30.9626 37.4604H17.8314V37.3653C25.3919 36.5379 31.2977 30.1186 31.2977 22.3392C31.2977 17.6982 29.215 13.3902 25.5918 10.4991L24.7833 9.86206L21.5691 13.9037L22.3676 14.5409C24.7642 16.4429 26.1337 19.2865 26.1337 22.3392C26.1337 27.2561 22.5391 31.3644 17.8314 32.1537C17.2895 32.2488 16.7376 32.2964 16.1671 32.2964H6.50729C2.91331 32.2964 0 29.3829 0 25.7891V6.5073C0 2.91353 2.91331 7.57222e-06 6.50729 7.57222e-06H17.8314V0.408969C11.1554 1.97814 6.17212 7.98848 6.17212 15.1306C6.17212 19.762 8.2548 24.0797 11.8875 26.9611L12.6865 27.6078L15.9008 23.5661L15.102 22.9194C12.7149 21.0173 11.3361 18.1833 11.3361 15.1306C11.3361 10.851 14.0369 7.19916 17.8314 5.79156C18.9156 5.38259 20.0853 5.16402 21.3027 5.16402H30.9626C34.5563 5.16402 37.4698 8.07733 37.4698 11.6713Z" fill="#FFD37B"/>
<path d="M58.8819 13.7491C58.6334 10.9253 56.8829 9.51357 53.6299 9.51357C52.1844 9.51357 51.0552 9.8126 50.2414 10.4111C49.4284 11.0096 49.0214 11.8288 49.0214 12.8675C49.0214 13.839 49.321 14.5055 49.9195 14.8673C50.5182 15.2285 51.8454 15.6693 53.9012 16.1882C54.4429 16.3468 54.8609 16.4595 55.155 16.5273C57.8432 17.2047 59.6727 17.8151 60.6442 18.3568C62.7902 19.509 63.8633 21.3053 63.8633 23.7445C63.8633 24.8066 63.6828 25.7663 63.3209 26.6251C62.9597 27.4831 62.4739 28.2007 61.8643 28.7764C61.2539 29.3528 60.5315 29.8332 59.6957 30.2163C58.8597 30.6005 57.99 30.8772 57.0862 31.0467C56.1826 31.2162 55.2449 31.3014 54.2742 31.3014C51.2469 31.3014 48.7959 30.5784 46.9206 29.1327C45.0462 27.6866 44.1084 25.563 44.1084 22.7618H48.2761C48.2761 24.5244 48.8527 25.8287 50.0047 26.6757C51.1567 27.5226 52.6584 27.9467 54.5109 27.9467C56.1377 27.9467 57.408 27.6132 58.3228 26.947C59.2382 26.2805 59.6957 25.3485 59.6957 24.1513C59.6957 23.3833 59.4529 22.7564 58.9671 22.2706C58.4813 21.7849 57.956 21.4409 57.3915 21.2376C56.8267 21.0341 55.8442 20.7518 54.4429 20.3906C54.2852 20.3448 54.1606 20.311 54.0707 20.2889C51.0662 19.5208 49.0893 18.8883 48.1406 18.3907C46.1754 17.3743 45.1249 15.8042 44.9894 13.6813V13.2065C44.9894 11.0608 45.797 9.34964 47.412 8.07284C49.0276 6.79689 51.1901 6.15903 53.9012 6.15903C56.5217 6.15903 58.6562 6.77968 60.3052 8.0225C61.9542 9.26509 62.824 11.1735 62.9147 13.7491H58.8819Z" fill="#2A0808"/>
<path d="M75.8211 19.6785L83.1401 30.7588H78.4304L73.11 22.3218L70.8064 24.4903V30.7588H67.045V6.63292H70.8064V20.221L77.7863 13.2745H82.5304L75.8211 19.6785Z" fill="#2A0808"/>
<path d="M94.0142 19.6785L101.333 30.7588H96.6236L91.3031 22.3218L88.9995 24.4903V30.7588H85.2382V6.63292H88.9995V20.221L95.9794 13.2745H100.724L94.0142 19.6785Z" fill="#2A0808"/>
<path d="M107.362 30.7588H103.499V13.2742H107.362V30.7588ZM107.362 10.3267H103.499V6.53134H107.362V10.3267Z" fill="#2A0808"/>
<path d="M116.019 17.5272C115.171 18.5996 114.747 20.0625 114.747 21.915C114.747 23.8351 115.183 25.3485 116.052 26.4556C116.922 27.5626 118.113 28.1155 119.627 28.1155C121.14 28.1155 122.321 27.5738 123.168 26.4896C124.015 25.4051 124.438 23.9028 124.438 21.9828C124.438 20.0625 124.004 18.5721 123.134 17.51C122.264 16.4483 121.05 15.9176 119.491 15.9176C118.023 15.9176 116.866 16.4539 116.019 17.5272ZM128.132 30.7588H124.506V28.353C123.4 30.2731 121.536 31.2336 118.915 31.2336C116.453 31.2336 114.494 30.3976 113.036 28.7259C111.58 27.0541 110.851 24.8066 110.851 21.9828C110.851 19.1818 111.568 16.9509 113.002 15.2907C114.437 13.6301 116.363 12.8003 118.78 12.8003C121.242 12.8003 123.095 13.7151 124.337 15.5448V6.63295H128.132V30.7588Z" fill="#2A0808"/>
<path d="M136.667 17.476C135.787 18.583 135.346 20.0965 135.346 22.0165C135.346 23.9818 135.787 25.518 136.667 26.6251C137.548 27.7315 138.768 28.285 140.327 28.285C141.841 28.285 143.032 27.7259 143.902 26.6079C144.772 25.4896 145.206 23.948 145.206 21.9828C145.206 20.0625 144.772 18.5546 143.902 17.4594C143.032 16.3633 141.83 15.816 140.293 15.816C138.757 15.816 137.548 16.3696 136.667 17.476ZM146.731 15.2735C148.313 16.9453 149.103 19.1927 149.103 22.0165C149.103 24.8627 148.318 27.122 146.748 28.7936C145.178 30.4654 143.049 31.3014 140.361 31.3014C137.627 31.3014 135.459 30.4654 133.855 28.7936C132.251 27.122 131.449 24.8627 131.449 22.0165C131.449 19.1927 132.257 16.9453 133.872 15.2735C135.487 13.6023 137.65 12.7665 140.361 12.7665C143.027 12.7665 145.15 13.6023 146.731 15.2735Z" fill="#2A0808"/>
</svg>
